<svg id="visual" viewBox="0 0 900 600" width="900" height="600" xmlns="http://www.w3.org/2000/svg" xmlns:xlink="http://www.w3.org/1999/xlink" version="1.1"><rect x="0" y="0" width="900" height="600" fill="#161616"></rect><g transform="translate(434.47439116259625 330.0346277321229)"><path d="M128 -222.1C171 -196.9 214.6 -172.9 235.5 -136.1C256.4 -99.3 254.7 -49.7 252.2 -1.4C249.8 46.8 246.6 93.7 225.2 129.6C203.7 165.5 164.1 190.6 123.6 199.3C83 208.1 41.5 200.5 8.2 186.3C-25 172 -50 150.9 -91.3 142.6C-132.6 134.3 -190.1 138.6 -211.6 117C-233.1 95.3 -218.6 47.7 -205.9 7.3C-193.2 -33 -182.3 -66 -161.1 -88.1C-139.8 -110.2 -108.2 -121.3 -79.6 -154.8C-51 -188.3 -25.5 -244.2 8.5 -258.9C42.5 -273.6 85 -247.2 128 -222.1" fill="#da3939"></path></g></svg>