<svg id="visual" viewBox="0 0 900 600" width="900" height="600" xmlns="http://www.w3.org/2000/svg" xmlns:xlink="http://www.w3.org/1999/xlink" version="1.1"><rect x="0" y="0" width="900" height="600" fill="#161616"></rect><defs><linearGradient id="grad1_0" x1="33.3%" y1="0%" x2="100%" y2="100%"><stop offset="20%" stop-color="#161616" stop-opacity="1"></stop><stop offset="80%" stop-color="#161616" stop-opacity="1"></stop></linearGradient></defs><defs><linearGradient id="grad2_0" x1="0%" y1="0%" x2="66.7%" y2="100%"><stop offset="20%" stop-color="#161616" stop-opacity="1"></stop><stop offset="80%" stop-color="#161616" stop-opacity="1"></stop></linearGradient></defs><g transform="translate(900, 0)"><path d="M0 486.7C-67.4 484.8 -134.8 482.9 -186.3 449.7C-237.7 416.5 -273.3 352 -297.7 297.7C-322.1 243.3 -335.3 199.1 -364.9 151.2C-394.6 103.2 -440.7 51.6 -486.7 0L0 0Z" fill="#715DF2"></path></g><g transform="translate(0, 600)"><path d="M0 -486.7C48.6 -447.4 97.1 -408 162.3 -391.7C227.4 -375.4 309.2 -382.1 344.2 -344.2C379.2 -306.2 367.4 -223.6 383.4 -158.8C399.4 -94 443.1 -47 486.7 0L0 0Z" fill="#715DF2"></path></g></svg>