<svg id="visual" viewBox="0 0 900 600" width="900" height="600" xmlns="http://www.w3.org/2000/svg" xmlns:xlink="http://www.w3.org/1999/xlink" version="1.1"><rect width="900" height="600" fill="#161616"></rect><g><g transform="translate(386 34)"><path d="M0 -100.4L86.9 -50.2L86.9 50.2L0 100.4L-86.9 50.2L-86.9 -50.2Z" stroke="#505ff4" fill="none" stroke-width="2"></path></g><g transform="translate(818 285)"><path d="M0 -71L61.5 -35.5L61.5 35.5L0 71L-61.5 35.5L-61.5 -35.5Z" stroke="#505ff4" fill="none" stroke-width="2"></path></g><g transform="translate(218 521)"><path d="M0 -14L12.1 -7L12.1 7L0 14L-12.1 7L-12.1 -7Z" stroke="#505ff4" fill="none" stroke-width="2"></path></g><g transform="translate(259 314)"><path d="M0 -25L21.7 -12.5L21.7 12.5L0 25L-21.7 12.5L-21.7 -12.5Z" stroke="#505ff4" fill="none" stroke-width="2"></path></g><g transform="translate(508 226)"><path d="M0 -33L28.6 -16.5L28.6 16.5L0 33L-28.6 16.5L-28.6 -16.5Z" stroke="#505ff4" fill="none" stroke-width="2"></path></g><g transform="translate(7 143)"><path d="M0 -74L64.1 -37L64.1 37L0 74L-64.1 37L-64.1 -37Z" stroke="#505ff4" fill="none" stroke-width="2"></path></g><g transform="translate(699 108)"><path d="M0 -81L70.1 -40.5L70.1 40.5L0 81L-70.1 40.5L-70.1 -40.5Z" stroke="#505ff4" fill="none" stroke-width="2"></path></g></g></svg>